<?xml version="1.0" standalone="no"?><!DOCTYPE svg PUBLIC "-//W3C//DTD SVG 1.1//EN" "http://www.w3.org/Graphics/SVG/1.1/DTD/svg11.dtd"><svg t="1739891520808" class="icon" viewBox="0 0 1024 1024" version="1.1" xmlns="http://www.w3.org/2000/svg" p-id="6569" xmlns:xlink="http://www.w3.org/1999/xlink" width="200" height="200"><path d="M512 960c-103.8 0-158.12-225.38-158.12-448S408.2 64 512 64s158.12 225.37 158.12 448S615.8 960 512 960z m0-843.29c-36.79 0-105.41 135.76-105.41 395.29S475.21 907.3 512 907.3 617.41 771.53 617.41 512 548.79 116.71 512 116.71z" fill="#333333" p-id="6570"></path><path d="M222.47 778.13c-46.36 0-81.49-12.76-98.44-42.13-51.9-89.91 116.12-249.63 308.92-360.93 99.78-57.61 200.96-99.71 284.91-118.54 119.93-26.92 165.25 2.26 182.13 31.47 51.89 89.89-116.12 249.62-308.92 360.94-129.83 74.94-273.05 129.19-368.6 129.19zM802 298.65c-19.17 0-43.4 2.75-72.61 9.3-78.88 17.7-174.8 57.74-270.09 112.76-224.76 129.76-308.03 257.08-289.63 288.94 18.39 31.85 170.27 23.41 395.04-106.36 224.76-129.77 308.02-257.08 289.62-288.94-5.31-9.19-22.84-15.7-52.33-15.7z m-355.88 99.24h0.13-0.13z" fill="#333333" p-id="6571"></path><path d="M801.53 778.13c-95.55 0-238.75-54.24-368.58-129.19C240.15 537.62 72.12 377.9 124.02 288c51.91-89.88 274.24-24.24 467.03 87.07 99.78 57.61 186.83 124.18 245.11 187.47 83.3 90.43 80.67 144.25 63.8 173.47-16.94 29.36-52.09 42.12-98.43 42.12zM459.3 603.29c224.76 129.75 376.65 138.22 395.03 106.36 8.76-15.17-5.44-55.51-56.93-111.41-54.76-59.47-137.4-122.52-232.69-177.53C339.96 290.95 188.05 282.5 169.67 314.35c-18.39 31.86 64.87 159.17 289.63 288.94z" fill="#333333" p-id="6572"></path><path d="M512 591.06c-43.6 0-79.06-35.46-79.06-79.06s35.46-79.06 79.06-79.06 79.06 35.46 79.06 79.06-35.46 79.06-79.06 79.06z m0-105.42c-14.53 0-26.35 11.82-26.35 26.35s11.82 26.35 26.35 26.35c14.53 0 26.35-11.82 26.35-26.35s-11.82-26.35-26.35-26.35z" fill="#333333" p-id="6573"></path></svg>